<svg width="144" height="144" viewBox="0 0 144 144" fill="none" xmlns="http://www.w3.org/2000/svg">
<path fill-rule="evenodd" clip-rule="evenodd" d="M127.229 71.6731C127.229 102.259 102.434 127.054 71.8483 127.054C64.1906 127.054 56.8958 125.5 50.2625 122.689C41.6517 119.042 34.1549 113.277 28.425 106.049C20.9385 96.6046 16.4678 84.6606 16.4678 71.6731C16.4678 41.0873 41.2624 16.2925 71.8483 16.2925C80.3712 16.2925 88.4447 18.2177 95.6569 21.6571C98.7997 23.1557 101.779 24.9418 104.561 26.9813C118.306 37.0588 127.229 53.3239 127.229 71.6731ZM71.8483 35.9604C91.5723 35.9604 107.561 51.9498 107.561 71.6731C107.561 74.8747 107.14 77.9778 106.35 80.9303C103.072 93.1776 93.4467 102.83 81.2146 106.145C78.2298 106.954 75.0896 107.386 71.8483 107.386C56.4933 107.386 43.4013 97.6945 38.3553 84.0949C36.9199 80.2264 36.1357 76.0412 36.1357 71.6731C36.1357 70.3155 36.2114 68.9758 36.359 67.6572C37.3263 59.0127 41.3794 51.3008 47.3921 45.6484C53.7821 39.641 62.3856 35.9604 71.8483 35.9604Z" fill="url(#paint0_linear_415_240)"/>
<path d="M90.0712 94.7416C90.0712 98.8157 88.1333 102.095 84.2575 104.58C83.3567 105.173 82.3421 105.695 81.2139 106.146C93.446 102.831 103.072 93.1785 106.35 80.9312C105.633 79.6146 104.777 78.4044 103.784 77.3012C100.307 73.3263 96.0832 70.395 91.1148 68.5067C86.1459 66.5192 79.7856 64.6309 72.0347 62.8424C66.3704 61.4511 61.8984 60.2085 58.6188 59.116C55.3399 58.0228 52.6069 56.5317 50.4205 54.644C48.3339 52.7557 47.2902 50.3208 47.2902 47.3399C47.2902 46.761 47.3239 46.1978 47.3914 45.6499C41.3794 51.3016 37.326 59.0136 36.3587 67.6581C39.2144 70.1313 42.4111 72.054 45.9485 73.4255C50.9175 75.3138 57.3769 77.2021 65.3268 79.0898C70.9911 80.481 75.463 81.7236 78.7426 82.8168C82.0216 83.91 84.705 85.45 86.7916 87.4375C88.978 89.3258 90.0712 91.7601 90.0712 94.7416Z" fill="url(#paint1_linear_415_240)"/>
<path d="M33.2787 64.6304C29.8006 60.5556 28.0615 55.0903 28.0615 48.2336C28.0615 42.4695 29.5754 37.2163 32.6561 32.5457C22.6531 42.5647 16.4678 56.397 16.4678 71.6734C16.4678 84.661 20.9385 96.6043 28.425 106.048C34.1549 113.277 41.6517 119.041 50.2625 122.69C56.6023 125.375 63.5462 126.914 70.8338 127.045C71.1173 127.05 71.4015 127.053 71.6858 127.054C82.8346 127.045 92.8406 122.151 99.6774 114.397C105.401 107.904 108.905 99.4067 108.998 90.0933C108.664 86.6127 107.781 83.5585 106.35 80.9306C103.072 93.1779 93.4467 102.83 81.2146 106.146C78.2298 106.955 75.0896 107.386 71.8483 107.386C56.4933 107.386 43.4013 97.6948 38.3553 84.0952C37.5152 81.8308 36.8981 79.458 36.5308 77.0039C36.2705 75.265 36.1357 73.4851 36.1357 71.6734C36.1357 70.3158 36.2114 68.9761 36.359 67.6575C35.2839 66.7262 34.2572 65.7176 33.2787 64.6304Z" fill="url(#paint2_linear_415_240)"/>
<defs>
<linearGradient id="paint0_linear_415_240" x1="113.296" y1="101.277" x2="68.6824" y2="28.2428" gradientUnits="userSpaceOnUse">
<stop stop-color="#65C7A4"/>
<stop offset="1" stop-color="#B4EA71"/>
</linearGradient>
<linearGradient id="paint1_linear_415_240" x1="25.3905" y1="55.6731" x2="97.103" y2="94.6689" gradientUnits="userSpaceOnUse">
<stop stop-color="#9FD868"/>
<stop offset="1" stop-color="#71DA64"/>
</linearGradient>
<linearGradient id="paint2_linear_415_240" x1="91.0105" y1="121.696" x2="28.4856" y2="63.2371" gradientUnits="userSpaceOnUse">
<stop stop-color="#74DF56"/>
<stop offset="1" stop-color="#65C7A4"/>
</linearGradient>
</defs>
</svg>
