<svg xmlns="http://www.w3.org/2000/svg" viewBox="0 0 841.9 595.3">

    <symbol id="logo" viewBox="0 0 178 45" fill="none" xmlns="http://www.w3.org/2000/svg">
        <path fill-rule="evenodd" clip-rule="evenodd" d="M29.9237 23.4205C29.9237 30.8546 23.8972 36.8811 16.4631 36.8811C14.6019 36.8811 12.8288 36.5034 11.2166 35.8203C9.12367 34.9337 7.30152 33.5326 5.90883 31.7757C4.08921 29.4803 3.00256 26.5772 3.00256 23.4205C3.00256 15.9865 9.02905 9.95996 16.4631 9.95996C18.5347 9.95996 20.497 10.4279 22.2499 11.2639C23.0138 11.6281 23.7378 12.0622 24.414 12.5579C27.7548 15.0073 29.9237 18.9607 29.9237 23.4205ZM16.4631 14.7404C21.2571 14.7404 25.1433 18.6267 25.1433 23.4205C25.1433 24.1987 25.041 24.9529 24.8489 25.6705C24.0522 28.6473 21.7127 30.9934 18.7396 31.7992C18.0142 31.9958 17.2509 32.1007 16.4631 32.1007C12.731 32.1007 9.5489 29.7452 8.32245 26.4397C7.97357 25.4994 7.78297 24.4822 7.78297 23.4205C7.78297 23.0906 7.80138 22.7649 7.83723 22.4444C8.07235 20.3433 9.05749 18.4689 10.5189 17.0951C12.072 15.6349 14.1631 14.7404 16.4631 14.7404Z" fill="url(#paint0_linear_327_971)"/>
        <path d="M20.8923 29.0275C20.8923 30.0177 20.4213 30.8148 19.4792 31.4187C19.2603 31.5628 19.0137 31.6897 18.7395 31.7994C21.7126 30.9936 24.0522 28.6475 24.8489 25.6708C24.6746 25.3508 24.4667 25.0566 24.2254 24.7885C23.3801 23.8224 22.3535 23.1099 21.146 22.6509C19.9382 22.1679 18.3923 21.7089 16.5084 21.2742C15.1317 20.936 14.0447 20.634 13.2476 20.3685C12.4506 20.1028 11.7864 19.7403 11.255 19.2815C10.7478 18.8226 10.4941 18.2307 10.4941 17.5062C10.4941 17.3655 10.5023 17.2286 10.5187 17.0955C9.05748 18.4691 8.07228 20.3436 7.83716 22.4447C8.53126 23.0458 9.30824 23.5131 10.168 23.8465C11.3758 24.3054 12.9458 24.7644 14.878 25.2232C16.2548 25.5614 17.3417 25.8634 18.1388 26.1291C18.9358 26.3948 19.588 26.7691 20.0952 27.2522C20.6266 27.7111 20.8923 28.3028 20.8923 29.0275Z" fill="url(#paint1_linear_327_971)"/>
        <path d="M7.08856 21.7088C6.24319 20.7184 5.82049 19.39 5.82049 17.7235C5.82049 16.3225 6.18845 15.0456 6.93723 13.9104C4.50596 16.3456 3.00256 19.7076 3.00256 23.4206C3.00256 26.5773 4.08921 29.4802 5.90883 31.7757C7.30152 33.5327 9.12367 34.9337 11.2166 35.8204C12.7575 36.4731 14.4452 36.8471 16.2165 36.8789C16.2854 36.8802 16.3545 36.881 16.4236 36.8812C19.1334 36.8791 21.5654 35.6895 23.2271 33.8048C24.6183 32.2268 25.4699 30.1613 25.4926 27.8977C25.4113 27.0517 25.1967 26.3094 24.8489 25.6706C24.0522 28.6474 21.7127 30.9933 18.7396 31.7993C18.0142 31.9959 17.2509 32.1008 16.4631 32.1008C12.731 32.1008 9.5489 29.7453 8.32245 26.4398C8.11825 25.8894 7.96827 25.3127 7.879 24.7162C7.81574 24.2936 7.78297 23.8609 7.78297 23.4206C7.78297 23.0906 7.80138 22.765 7.83723 22.4445C7.57592 22.2182 7.32638 21.973 7.08856 21.7088Z" fill="url(#paint2_linear_327_971)"/>
        <path d="M41.0743 31.2761C39.8402 31.2761 38.6424 31.1237 37.481 30.8188C36.3195 30.5139 35.3759 30.1074 34.6499 29.5993L36.0654 26.4198C36.7478 26.8698 37.539 27.2328 38.4392 27.5087C39.3393 27.7845 40.225 27.9223 41.096 27.9223C42.7511 27.9223 43.5786 27.5087 43.5786 26.681C43.5786 26.2455 43.3391 25.9261 42.8601 25.7229C42.3955 25.5051 41.6404 25.28 40.5951 25.0477C39.4482 24.801 38.49 24.5396 37.7205 24.2638C36.951 23.9733 36.2904 23.5161 35.7388 22.8919C35.1871 22.2676 34.9113 21.4255 34.9113 20.3655C34.9113 19.4365 35.1653 18.6016 35.6734 17.8612C36.1815 17.1062 36.9365 16.511 37.9383 16.0755C38.9546 15.6399 40.1959 15.4221 41.6623 15.4221C42.6641 15.4221 43.6512 15.5383 44.624 15.7706C45.5967 15.9883 46.4532 16.315 47.1937 16.7505L45.8653 19.9519C44.4135 19.1679 43.0051 18.7758 41.6404 18.7758C40.7839 18.7758 40.1596 18.9065 39.7676 19.1679C39.3756 19.4147 39.1796 19.7413 39.1796 20.1479C39.1796 20.5543 39.4119 20.8592 39.8765 21.0624C40.3411 21.2658 41.0888 21.4762 42.1196 21.6941C43.2811 21.9408 44.2392 22.2094 44.9942 22.4997C45.7637 22.7757 46.4243 23.2257 46.976 23.8499C47.5421 24.4598 47.8253 25.2946 47.8253 26.3544C47.8253 27.269 47.5712 28.0966 47.063 28.8371C46.5549 29.5775 45.7927 30.1727 44.7764 30.6228C43.7602 31.0583 42.5261 31.2761 41.0743 31.2761Z" fill="white"/>
        <path d="M56.7858 15.7271C58.1651 15.7271 59.3627 15.9593 60.3791 16.424C61.3954 16.8739 62.1793 17.5273 62.731 18.3838C63.2827 19.2259 63.5586 20.2205 63.5586 21.3674C63.5586 22.5144 63.2827 23.5089 62.731 24.3509C62.1793 25.193 61.3954 25.8463 60.3791 26.3109C59.3627 26.7609 58.1651 26.986 56.7858 26.986H54.1289V30.9713H49.817V15.7271H56.7858ZM56.5244 23.5888C57.4101 23.5888 58.0779 23.4 58.528 23.0225C58.9781 22.6305 59.203 22.0789 59.203 21.3674C59.203 20.656 58.9781 20.1044 58.528 19.7124C58.0779 19.3204 57.4101 19.1243 56.5244 19.1243H54.1289V23.5888H56.5244Z" fill="white"/>
        <path d="M75.109 28.0096H68.6629L67.4651 30.9713H63.0662L69.7953 15.7271H74.042L80.793 30.9713H76.3068L75.109 28.0096ZM73.846 24.8301L71.886 19.9519L69.9259 24.8301H73.846Z" fill="white"/>
        <path d="M89.403 31.2761C87.806 31.2761 86.3687 30.9422 85.0911 30.2744C83.8279 29.5919 82.8335 28.6483 82.1075 27.4433C81.3816 26.2383 81.0187 24.8736 81.0187 23.3491C81.0187 21.8247 81.3816 20.46 82.1075 19.255C82.8335 18.05 83.8279 17.1136 85.0911 16.4456C86.3687 15.7633 87.806 15.4221 89.403 15.4221C90.7967 15.4221 92.0527 15.6689 93.1705 16.1625C94.2884 16.6562 95.2176 17.3675 95.958 18.2967L93.214 20.7794C92.2268 19.5888 91.029 18.9936 89.6208 18.9936C88.7933 18.9936 88.0527 19.1751 87.3996 19.538C86.7607 19.9009 86.2598 20.4165 85.8969 21.0843C85.5484 21.7376 85.3741 22.4925 85.3741 23.3491C85.3741 24.2056 85.5484 24.9679 85.8969 25.6357C86.2598 26.289 86.7607 26.7972 87.3996 27.1602C88.0527 27.5231 88.7933 27.7047 89.6208 27.7047C91.029 27.7047 92.2268 27.1093 93.214 25.9189L95.958 28.4015C95.2176 29.3307 94.2884 30.0421 93.1705 30.5357C92.0527 31.0292 90.7967 31.2761 89.403 31.2761Z" fill="white"/>
        <path d="M110.119 27.6393V30.9713H97.8806V15.7271H109.836V19.059H102.149V21.6287H108.922V24.8518H102.149V27.6393H110.119Z" fill="white"/>
        <path d="M120.113 31.2761C118.516 31.2761 117.078 30.9422 115.801 30.2744C114.538 29.5919 113.543 28.6483 112.817 27.4433C112.091 26.2383 111.728 24.8736 111.728 23.3491C111.728 21.8247 112.091 20.46 112.817 19.255C113.543 18.05 114.538 17.1136 115.801 16.4456C117.078 15.7633 118.516 15.4221 120.113 15.4221C121.506 15.4221 122.762 15.6689 123.88 16.1625C124.998 16.6562 125.927 17.3675 126.668 18.2967L123.924 20.7794C122.936 19.5888 121.739 18.9936 120.33 18.9936C119.503 18.9936 118.762 19.1751 118.109 19.538C117.47 19.9009 116.969 20.4165 116.607 21.0843C116.258 21.7376 116.084 22.4925 116.084 23.3491C116.084 24.2056 116.258 24.9679 116.607 25.6357C116.969 26.289 117.47 26.7972 118.109 27.1602C118.762 27.5231 119.503 27.7047 120.33 27.7047C121.739 27.7047 122.936 27.1093 123.924 25.9189L126.668 28.4015C125.927 29.3307 124.998 30.0421 123.88 30.5357C122.762 31.0292 121.506 31.2761 120.113 31.2761Z" fill="url(#paint3_linear_327_971)"/>
        <path d="M138.549 28.0096H132.102L130.905 30.9713H126.506L133.235 15.7271H137.482L144.233 30.9713H139.746L138.549 28.0096ZM137.286 24.8301L135.326 19.9519L133.366 24.8301H137.286Z" fill="url(#paint4_linear_327_971)"/>
        <path d="M150.812 31.2761C149.578 31.2761 148.38 31.1237 147.219 30.8188C146.058 30.5139 145.114 30.1074 144.388 29.5993L145.803 26.4198C146.486 26.8698 147.277 27.2328 148.177 27.5087C149.077 27.7845 149.963 27.9223 150.834 27.9223C152.489 27.9223 153.317 27.5087 153.317 26.681C153.317 26.2455 153.077 25.9261 152.598 25.7229C152.133 25.5051 151.378 25.28 150.333 25.0477C149.186 24.801 148.228 24.5396 147.459 24.2638C146.689 23.9733 146.028 23.5161 145.477 22.8919C144.925 22.2676 144.649 21.4255 144.649 20.3655C144.649 19.4365 144.903 18.6016 145.411 17.8612C145.92 17.1062 146.675 16.511 147.676 16.0755C148.693 15.6399 149.934 15.4221 151.4 15.4221C152.402 15.4221 153.388 15.5383 154.362 15.7706C155.334 15.9883 156.192 16.315 156.932 16.7505L155.604 19.9519C154.152 19.1679 152.743 18.7758 151.378 18.7758C150.522 18.7758 149.898 18.9065 149.506 19.1679C149.114 19.4147 148.918 19.7413 148.918 20.1479C148.918 20.5543 149.15 20.8592 149.614 21.0624C150.079 21.2658 150.827 21.4762 151.858 21.6941C153.019 21.9408 153.976 22.2094 154.731 22.4997C155.501 22.7757 156.163 23.2257 156.714 23.8499C157.281 24.4598 157.564 25.2946 157.564 26.3544C157.564 27.269 157.31 28.0966 156.801 28.8371C156.293 29.5775 155.531 30.1727 154.515 30.6228C153.498 31.0583 152.264 31.2761 150.812 31.2761Z" fill="url(#paint5_linear_327_971)"/>
        <path d="M174.059 15.7271V30.9713H169.747V25.0261H163.867V30.9713H159.556V15.7271H163.867V21.4546H169.747V15.7271H174.059Z" fill="url(#paint6_linear_327_971)"/>
        <defs>
            <linearGradient id="paint0_linear_327_971" x1="26.5373" y1="30.616" x2="15.6936" y2="12.8645" gradientUnits="userSpaceOnUse">
                <stop stop-color="#65C7A4"/>
                <stop offset="1" stop-color="#B4EA71"/>
            </linearGradient>
            <linearGradient id="paint1_linear_327_971" x1="5.17128" y1="19.5317" x2="22.6014" y2="29.0098" gradientUnits="userSpaceOnUse">
                <stop stop-color="#9FD868"/>
                <stop offset="1" stop-color="#71DA64"/>
            </linearGradient>
            <linearGradient id="paint2_linear_327_971" x1="21.1206" y1="35.579" x2="5.92358" y2="21.3701" gradientUnits="userSpaceOnUse">
                <stop stop-color="#74DF56"/>
                <stop offset="1" stop-color="#65C7A4"/>
            </linearGradient>
            <linearGradient id="paint3_linear_327_971" x1="97.2216" y1="25.0609" x2="121.26" y2="63.0419" gradientUnits="userSpaceOnUse">
                <stop stop-color="#9FD868"/>
                <stop offset="1" stop-color="#71DA64"/>
            </linearGradient>
            <linearGradient id="paint4_linear_327_971" x1="97.2217" y1="25.0609" x2="121.26" y2="63.0419" gradientUnits="userSpaceOnUse">
                <stop stop-color="#9FD868"/>
                <stop offset="1" stop-color="#71DA64"/>
            </linearGradient>
            <linearGradient id="paint5_linear_327_971" x1="97.2217" y1="25.0609" x2="121.26" y2="63.0419" gradientUnits="userSpaceOnUse">
                <stop stop-color="#9FD868"/>
                <stop offset="1" stop-color="#71DA64"/>
            </linearGradient>
            <linearGradient id="paint6_linear_327_971" x1="97.2216" y1="25.0609" x2="121.26" y2="63.0419" gradientUnits="userSpaceOnUse">
                <stop stop-color="#9FD868"/>
                <stop offset="1" stop-color="#71DA64"/>
            </linearGradient>
        </defs>
    </symbol>




    <symbol id="arrow-top-right" viewBox="0 0 36 36" fill="none" xmlns="http://www.w3.org/2000/svg">
        <path fill-rule="evenodd" clip-rule="evenodd"
              d="M24.2472 12.8028C24.2472 12.2229 23.7771 11.7528 23.1972 11.7528L12.8028 11.7528C12.2229 11.7528 11.7528 12.2229 11.7528 12.8028C11.7528 13.3827 12.2229 13.8528 12.8028 13.8528L20.6623 13.8528L12.0603 22.4548C11.6503 22.8648 11.6503 23.5296 12.0603 23.9397C12.4704 24.3497 13.1352 24.3497 13.5452 23.9397L22.1472 15.3377L22.1472 23.1972C22.1472 23.7771 22.6173 24.2472 23.1972 24.2472C23.7771 24.2472 24.2472 23.7771 24.2472 23.1972L24.2472 12.8028Z"
              fill="white"/>
    </symbol>

    <symbol id="chart" viewBox="0 0 30 30" fill="none" xmlns="http://www.w3.org/2000/svg">
        <g clip-path="url(#clip0_327_717)">
            <path d="M2.03516 22.3345V27.1974C2.03516 27.4933 2.27553 27.7398 2.57754 27.7398H6.33723C6.63307 27.7398 6.87961 27.4994 6.87961 27.1974V18.6426L4.14921 21.373C3.56985 21.9462 2.83024 22.279 2.03516 22.3345Z"
                  fill="url(#paint0_linear_327_717)"/>
            <path d="M8.75 18.5811V27.1975C8.75 27.4934 8.99037 27.7399 9.29238 27.7399H13.0521C13.3479 27.7399 13.5945 27.4995 13.5945 27.1975V22.125C12.7377 22.1065 11.9365 21.7675 11.3325 21.1635L8.75 18.5811Z"
                  fill="url(#paint1_linear_327_717)"/>
            <path d="M15.4688 21.5888V27.1975C15.4688 27.4934 15.7091 27.7399 16.0111 27.7399H19.7708C20.0666 27.7399 20.3132 27.4995 20.3132 27.1975V16.8491L16.005 21.1574C15.8386 21.3238 15.6598 21.4655 15.4688 21.5888Z"
                  fill="url(#paint2_linear_327_717)"/>
            <path d="M26.6686 10.4883L22.1878 14.9691V27.1973C22.1878 27.4932 22.4281 27.7397 22.7302 27.7397H26.4898C26.7857 27.7397 27.0322 27.4993 27.0322 27.1973V10.8273C26.909 10.7225 26.8165 10.63 26.7487 10.5684L26.6686 10.4883Z"
                  fill="url(#paint3_linear_327_717)"/>
            <path d="M29.7446 2.54993C29.5659 2.35887 29.2947 2.26025 28.9496 2.26025C28.9188 2.26025 28.8818 2.26025 28.851 2.26025C27.1005 2.34038 25.3563 2.42667 23.6059 2.50679C23.3717 2.51912 23.0512 2.53144 22.7985 2.78415C22.7184 2.86427 22.6567 2.95672 22.6074 3.06766C22.3485 3.62854 22.7122 3.99218 22.8848 4.16475L23.3224 4.60852C23.6244 4.91669 23.9325 5.22486 24.2407 5.52687L13.6643 16.1095L8.9123 11.3575C8.62878 11.074 8.24665 10.9137 7.83987 10.9137C7.43308 10.9137 7.05711 11.074 6.77359 11.3575L0.443766 17.6812C-0.147922 18.2728 -0.147922 19.2282 0.443766 19.8199L0.727283 20.1034C1.0108 20.3869 1.39293 20.5472 1.79972 20.5472C2.2065 20.5472 2.58247 20.3869 2.86599 20.1034L7.83987 15.1295L12.5919 19.8815C12.8754 20.165 13.2575 20.3253 13.6643 20.3253C14.0711 20.3253 14.447 20.165 14.7367 19.8815L26.6691 7.9491L28.0189 9.29273C28.1791 9.45298 28.401 9.67486 28.74 9.67486C28.8818 9.67486 29.0235 9.63788 29.1714 9.55775C29.2701 9.50228 29.3564 9.44065 29.4303 9.36669C29.6953 9.10166 29.7446 8.76267 29.757 8.49764C29.8063 7.36357 29.8618 6.2295 29.9172 5.08927L29.9973 3.382C30.0158 3.02452 29.9357 2.74716 29.7446 2.54993Z"
                  fill="url(#paint4_linear_327_717)"/>
        </g>
        <defs>
            <linearGradient id="paint0_linear_327_717" x1="27.5" y1="30.0141" x2="2.03516" y2="30.0292"
                            gradientUnits="userSpaceOnUse">
                <stop stop-color="#FFAF46"/>
                <stop offset="1" stop-color="#72B45B"/>
            </linearGradient>
            <linearGradient id="paint1_linear_327_717" x1="27" y1="30.0296" x2="2.00001" y2="30.0443"
                            gradientUnits="userSpaceOnUse">
                <stop stop-color="#FFAF46"/>
                <stop offset="1" stop-color="#72B45B"/>
            </linearGradient>
            <linearGradient id="paint2_linear_327_717" x1="27.5" y1="30.4626" x2="3.00001" y2="30.4747"
                            gradientUnits="userSpaceOnUse">
                <stop stop-color="#FFAF46"/>
                <stop offset="1" stop-color="#72B45B"/>
            </linearGradient>
            <linearGradient id="paint3_linear_327_717" x1="28.0003" y1="32.0525" x2="3.50028" y2="32.0602"
                            gradientUnits="userSpaceOnUse">
                <stop stop-color="#FFAF46"/>
                <stop offset="1" stop-color="#72B45B"/>
            </linearGradient>
            <linearGradient id="paint4_linear_327_717" x1="30" y1="25.1189" x2="9.87364e-05" y2="25.1736"
                            gradientUnits="userSpaceOnUse">
                <stop stop-color="#FFAF46"/>
                <stop offset="1" stop-color="#72B45B"/>
            </linearGradient>
            <clipPath id="clip0_327_717">
                <rect width="30" height="30" fill="white"/>
            </clipPath>
        </defs>
    </symbol>

    <symbol id="arrow-up" viewBox="0 0 18 18" fill="none" xmlns="http://www.w3.org/2000/svg">
        <path fill-rule="evenodd" clip-rule="evenodd"
              d="M9.495 3.60493C9.22163 3.33156 8.77842 3.33156 8.50505 3.60493L3.60505 8.50493C3.33168 8.77829 3.33168 9.22151 3.60505 9.49488C3.87842 9.76824 4.32163 9.76824 4.595 9.49488L8.30001 5.78987L8.30001 13.8998C8.30001 14.2864 8.61341 14.5998 9.00001 14.5998C9.38661 14.5998 9.70001 14.2864 9.70001 13.8998L9.70001 5.78984L13.405 9.49488C13.6784 9.76824 14.1216 9.76824 14.395 9.49488C14.6684 9.22151 14.6684 8.77829 14.395 8.50493L9.495 3.60493Z"
              fill="white"/>
    </symbol>

    <symbol id="burger" viewBox="0 0 22 22" fill="none" xmlns="http://www.w3.org/2000/svg">
        <path fill-rule="evenodd" clip-rule="evenodd" d="M21.12 5.27996H0.880005V3.95996H21.12V5.27996Z" fill="white"/>
        <path fill-rule="evenodd" clip-rule="evenodd" d="M21.12 11.8801H0.880005V10.5601H21.12V11.8801Z" fill="white"/>
        <path fill-rule="evenodd" clip-rule="evenodd" d="M21.12 18.4799H0.880005V17.1599H21.12V18.4799Z" fill="white"/>
    </symbol>

    <symbol id="close" viewBox="0 0 22 22" fill="none" xmlns="http://www.w3.org/2000/svg">
        <path fill-rule="evenodd" clip-rule="evenodd"
              d="M17.0812 17.5866L4.07042 4.57582L4.91895 3.72729L17.9297 16.7381L17.0812 17.5866Z" fill="white"/>
        <path fill-rule="evenodd" clip-rule="evenodd"
              d="M17.9297 4.5758L4.91896 17.5866L4.07043 16.738L17.0812 3.72727L17.9297 4.5758Z" fill="white"/>
    </symbol>

    <symbol id="check" viewBox="0 0 15 15" fill="none" xmlns="http://www.w3.org/2000/svg">
        <path d="M7.50013 0.625C6.14038 0.625 4.81117 1.02821 3.68058 1.78365C2.54999 2.53908 1.66881 3.61281 1.14845 4.86905C0.628101 6.12529 0.491953 7.50763 0.757226 8.84125C1.0225 10.1749 1.67728 11.3999 2.63877 12.3614C3.60025 13.3228 4.82526 13.9776 6.15888 14.2429C7.4925 14.5082 8.87483 14.372 10.1311 13.8517C11.3873 13.3313 12.461 12.4501 13.2165 11.3195C13.9719 10.189 14.3751 8.85975 14.3751 7.5C14.373 5.6773 13.648 3.92986 12.3591 2.64102C11.0703 1.35217 9.32283 0.62715 7.50013 0.625ZM7.50013 13.125C6.38761 13.125 5.30007 12.7951 4.37504 12.177C3.45002 11.5589 2.72905 10.6804 2.3033 9.6526C1.87756 8.62476 1.76617 7.49376 1.98321 6.40262C2.20025 5.31147 2.73598 4.3092 3.52265 3.52252C4.30932 2.73585 5.3116 2.20012 6.40274 1.98308C7.49389 1.76604 8.62489 1.87743 9.65272 2.30318C10.6806 2.72892 11.5591 3.44989 12.1771 4.37492C12.7952 5.29994 13.1251 6.38748 13.1251 7.5C13.1235 8.99134 12.5303 10.4211 11.4758 11.4757C10.4212 12.5302 8.99146 13.1233 7.50013 13.125Z"
              fill="#A1B255"/>
        <path d="M10.2022 5.47686L6.8935 8.50999L5.44162 7.05811C5.38397 6.99842 5.315 6.9508 5.23875 6.91805C5.1625 6.88529 5.08048 6.86805 4.9975 6.86733C4.91451 6.86661 4.83221 6.88242 4.7554 6.91385C4.67859 6.94527 4.60881 6.99168 4.55012 7.05036C4.49144 7.10905 4.44503 7.17883 4.41361 7.25564C4.38218 7.33245 4.36637 7.41475 4.36709 7.49774C4.36781 7.58072 4.38505 7.66274 4.41781 7.73899C4.45056 7.81524 4.49818 7.88421 4.55787 7.94186L6.43287 9.81686C6.54677 9.93077 6.70025 9.99631 6.86129 9.99981C7.02234 10.0033 7.17852 9.94448 7.29725 9.83561L11.0472 6.39811C11.1694 6.28606 11.2421 6.13006 11.2492 5.96444C11.2564 5.79883 11.1974 5.63715 11.0854 5.51499C10.9733 5.39282 10.8173 5.32017 10.6517 5.31302C10.4861 5.30587 10.3244 5.36481 10.2022 5.47686Z"
              fill="#A1B255"/>
    </symbol>

    <symbol id="timer" viewBox="0 0 15 15" fill="none" xmlns="http://www.w3.org/2000/svg">
        <path d="M8.5499 0.758351C8.05441 0.710703 7.34573 0.618348 6.45043 0.758351C3.19281 1.26769 0.69165 4.10849 0.69165 7.52599C0.69165 11.3026 3.74598 14.375 7.50016 14.375C11.2544 14.375 14.3087 11.3025 14.3087 7.52599C14.3087 4.10849 11.8075 1.26769 8.5499 0.758351ZM7.50016 13.0037C4.49764 13.0037 2.05495 10.5464 2.05495 7.52604C2.05495 4.5057 4.4977 2.04841 7.50016 2.04841C10.5026 2.04841 12.9454 4.5057 12.9454 7.52604C12.9454 10.5464 10.5027 13.0037 7.50016 13.0037Z"
              fill="#8F8F8F"/>
        <path d="M8.1819 7.24112V4.01069C8.1819 3.63201 7.87668 3.32498 7.50025 3.32498C7.12382 3.32498 6.8186 3.63201 6.8186 4.01069V7.63669C6.8186 7.74822 6.86277 7.85513 6.9413 7.9338L8.84822 9.844C9.11505 10.1113 9.54656 10.1103 9.81224 9.84197C10.0779 9.57362 10.0769 9.13943 9.81022 8.87222L8.1819 7.24112Z"
              fill="#8F8F8F"/>
    </symbol>

    <symbol id='download' viewBox="0 0 34 34" fill="none" xmlns="http://www.w3.org/2000/svg">
        <g clip-path="url(#clip0_327_821)">
            <path d="M17.0001 22.6667C16.7097 22.6667 16.4321 22.5477 16.2323 22.338L8.7948 14.5464C8.15022 13.872 8.62905 12.75 9.56264 12.75H13.4585V4.60421C13.4585 3.62812 14.2532 2.83337 15.2293 2.83337H18.771C19.747 2.83337 20.5418 3.62812 20.5418 4.60421V12.75H24.4376C25.3712 12.75 25.85 13.872 25.2055 14.5464L17.768 22.338C17.5682 22.5477 17.2906 22.6667 17.0001 22.6667Z"
                  fill="white"/>
            <path d="M31.5208 31.1667H2.47917C1.11208 31.1667 0 30.0546 0 28.6875V27.9792C0 26.6121 1.11208 25.5 2.47917 25.5H31.5208C32.8879 25.5 34 26.6121 34 27.9792V28.6875C34 30.0546 32.8879 31.1667 31.5208 31.1667Z"
                  fill="white"/>
        </g>
        <defs>
            <clipPath id="clip0_327_821">
                <rect width="34" height="34" fill="white"/>
            </clipPath>
        </defs>
    </symbol>

    <symbol id="group" viewBox="0 0 37 38" fill="none" xmlns="http://www.w3.org/2000/svg">
        <path d="M3.7693 15.0786C4.15983 14.688 4.79299 14.688 5.18352 15.0786L8.01193 17.907C8.40245 18.2975 8.40245 18.9307 8.01193 19.3212L5.18352 22.1496C4.79299 22.5401 4.15983 22.5401 3.7693 22.1496L0.94089 19.3212C0.550366 18.9307 0.550367 18.2975 0.940891 17.907L3.7693 15.0786Z"
              fill="white"/>
        <path d="M17.9101 15.077C18.3006 14.6865 18.9337 14.6865 19.3243 15.077L22.1527 17.9054C22.5432 18.2959 22.5432 18.9291 22.1527 19.3196L19.3243 22.148C18.9337 22.5385 18.3006 22.5385 17.9101 22.148L15.0816 19.3196C14.6911 18.9291 14.6911 18.2959 15.0816 17.9054L17.9101 15.077Z"
              fill="white"/>
        <path d="M32.0499 15.0754C32.4404 14.6849 33.0736 14.6849 33.4641 15.0754L36.2925 17.9038C36.683 18.2943 36.683 18.9275 36.2925 19.318L33.4641 22.1464C33.0736 22.537 32.4404 22.537 32.0499 22.1464L29.2215 19.318C28.8309 18.9275 28.8309 18.2943 29.2215 17.9038L32.0499 15.0754Z"
              fill="white"/>
        <path d="M17.9101 0.941054C18.3007 0.55053 18.9338 0.55053 19.3244 0.941055L29.2241 10.8408C29.6146 11.2313 29.6146 11.8645 29.2241 12.255L26.3953 15.0838C26.0048 15.4743 25.3716 15.4743 24.9811 15.0838L19.3244 9.42702C18.9338 9.0365 18.3007 9.0365 17.9101 9.42703L12.2534 15.0838C11.8629 15.4743 11.2297 15.4743 10.8392 15.0838L8.01039 12.255C7.61987 11.8645 7.61987 11.2313 8.01039 10.8408L17.9101 0.941054Z"
              fill="white"/>
        <path d="M19.3244 36.2967C18.9338 36.6873 18.3007 36.6873 17.9101 36.2967L8.01039 26.397C7.61987 26.0065 7.61987 25.3733 8.01039 24.9828L10.8392 22.154C11.2297 21.7635 11.8629 21.7635 12.2534 22.154L17.9101 27.8108C18.3007 28.2013 18.9338 28.2013 19.3244 27.8108L24.9811 22.154C25.3716 21.7635 26.0048 21.7635 26.3953 22.154L29.2241 24.9828C29.6146 25.3733 29.6146 26.0065 29.2241 26.397L19.3244 36.2967Z"
              fill="white"/>
    </symbol>

    <symbol id="pancakeswap" viewBox="0 0 34 34" fill="none" xmlns="http://www.w3.org/2000/svg">
        <path fill-rule="evenodd" clip-rule="evenodd"
              d="M6.11356 5.3125C5.57729 2.55 7.7224 0 10.511 0C12.9779 0 15.0158 2.01875 15.0158 4.4625V9.9875C15.6593 9.9875 16.3028 9.88125 16.9464 9.88125C17.5899 9.88125 18.1262 9.88125 18.7697 9.9875V4.4625C18.7697 2.01875 20.8076 0 23.2744 0C26.0631 0 28.2082 2.55 27.7792 5.3125L26.5994 11.7938C30.7823 13.6 34 16.7875 34 20.7188V23.1625C34 26.4562 31.8549 29.2188 28.7445 31.025C25.6341 32.9375 21.5584 34 16.9464 34C12.3344 34 8.25868 32.9375 5.14826 31.025C2.14511 29.2188 0 26.4562 0 23.1625V20.7188C0 16.7875 3.11041 13.6 7.29338 11.7938L6.11356 5.3125ZM24.9905 12.6437L26.3849 4.99375C26.7066 3.08125 25.3123 1.275 23.2744 1.275C21.5584 1.275 20.164 2.65625 20.164 4.35625V11.3687C19.735 11.2625 19.1987 11.2625 18.7697 11.2625C18.1262 11.2625 17.5899 11.1562 16.9464 11.1562C16.3028 11.1562 15.6593 11.1562 15.0158 11.2625C14.5868 11.2625 14.0505 11.3687 13.6215 11.3687V4.4625C13.6215 2.7625 12.2271 1.38125 10.511 1.38125C8.58044 1.38125 7.07886 3.1875 7.50789 5.1L8.90221 12.75C4.39748 14.45 1.39432 17.425 1.39432 20.825V23.2687C1.39432 28.475 8.36593 32.725 16.9464 32.725C25.5268 32.725 32.4984 28.475 32.4984 23.2687V20.825C32.6057 17.3188 29.6025 14.3438 24.9905 12.6437Z"
              fill="#6CB378"/>
        <path d="M32.6041 23.1625C32.6041 28.3688 25.6325 32.6188 17.0521 32.6188C8.47161 32.6188 1.5 28.3688 1.5 23.1625V20.7188H32.7114V23.1625H32.6041Z"
              fill="white"/>
        <path fill-rule="evenodd" clip-rule="evenodd"
              d="M7.50631 5.09998C7.07729 3.18748 8.57886 1.38123 10.5095 1.38123C12.2256 1.38123 13.6199 2.76248 13.6199 4.46248V11.475C14.6924 11.3687 15.765 11.2625 16.9448 11.2625C18.0173 11.2625 19.0899 11.3687 20.1625 11.475V4.46248C20.1625 2.76248 21.5568 1.38123 23.2729 1.38123C25.2035 1.38123 26.705 3.18748 26.3833 5.09998L24.989 12.75C29.4937 14.45 32.6041 17.425 32.6041 20.825C32.6041 26.0312 25.6325 30.2812 17.052 30.2812C8.47161 30.2812 1.5 26.0312 1.5 20.825C1.5 17.425 4.50315 14.45 9.00788 12.75L7.50631 5.09998Z"
              fill="white"/>
        <path d="M12.6548 20.0812C12.6548 21.4625 11.904 22.6312 10.9387 22.6312C9.97344 22.6312 9.22266 21.4625 9.22266 20.0812C9.22266 18.7 9.97344 17.5312 10.9387 17.5312C11.904 17.5312 12.6548 18.7 12.6548 20.0812Z"
              fill="#6CB378"/>
        <path d="M24.5615 20.0812C24.5615 21.4625 23.8107 22.6312 22.8454 22.6312C21.8801 22.6312 21.1293 21.4625 21.1293 20.0812C21.1293 18.7 21.8801 17.5312 22.8454 17.5312C23.8107 17.5312 24.5615 18.7 24.5615 20.0812Z"
              fill="#6CB378"/>
    </symbol>

    <symbol id="swap" viewBox="0 0 40 40" fill="none" xmlns="http://www.w3.org/2000/svg">
        <path d="M11.8775 22.0575V14.9937C11.8775 13.9556 12.7194 13.1137 13.7575 13.1137H20.4069L19.885 15.8225C19.885 16.76 21.0156 17.2325 21.6812 16.5706L23.5681 14.6837L27.2062 11.0456C27.4119 10.8362 27.5187 10.5687 27.5187 10.2975C27.5187 10.03 27.4119 9.76308 27.2062 9.55371L23.5681 5.91558L21.6812 4.02933C21.0156 3.36745 19.885 3.83995 19.885 4.77745L20.4069 7.4862H11.5175C8.60875 7.4862 6.25 9.84433 6.25 12.7537V13.1137V22.175C6.25 23.7575 7.55688 25.035 9.15 24.9875C10.69 24.9412 11.8775 23.5981 11.8775 22.0575Z"
              fill="white"/>
        <path d="M28.1225 17.9424V25.0061C28.1225 26.0443 27.2806 26.8861 26.2425 26.8861H19.5931L20.115 24.1774C20.115 23.2399 18.9844 22.7674 18.3188 23.4293L16.4319 25.3161L12.7938 28.9543C12.5881 29.1636 12.4813 29.4311 12.4813 29.7024C12.4813 29.9699 12.5881 30.2368 12.7938 30.4461L16.4319 34.0843L18.3188 35.9711C18.9844 36.633 20.115 36.1605 20.115 35.223L19.5931 32.5143H28.4831C31.3919 32.5143 33.7506 30.1561 33.7506 27.2468V26.8868V17.8255C33.7506 16.243 32.4438 14.9655 30.8506 15.013C29.31 15.0586 28.1225 16.4018 28.1225 17.9424Z"
              fill="white"/>
    </symbol>

    <symbol id="rocket" viewBox="0 0 30 30" fill="none" xmlns="http://www.w3.org/2000/svg">
        <g clip-path="url(#clip0_327_808)">
            <path d="M29.3849 0.00371694C23.5287 -0.101283 16.8499 2.95997 12.6224 7.70872C8.58242 7.78497 4.64867 9.44122 1.75242 12.3375C1.58367 12.5037 1.52367 12.7525 1.59742 12.9775C1.67242 13.2037 1.86742 13.3675 2.10242 13.4012L6.91992 14.0912L6.32492 14.7575C6.10367 15.005 6.11492 15.3812 6.34992 15.6162L14.3837 23.65C14.5049 23.7712 14.6649 23.8325 14.8262 23.8325C14.9749 23.8325 15.1237 23.78 15.2424 23.6737L15.9087 23.0787L16.5987 27.8962C16.6324 28.1312 16.8174 28.3037 17.0412 28.3787C17.0987 28.3975 17.1587 28.4062 17.2199 28.4062C17.3974 28.4062 17.5787 28.3287 17.7037 28.205C20.5599 25.3487 22.2162 21.415 22.2924 17.375C27.0462 13.1387 30.1324 6.46247 29.9962 0.613717C29.9874 0.281217 29.7187 0.0124669 29.3849 0.00371694ZM23.6249 10.7937C23.0162 11.4025 22.2162 11.7075 21.4149 11.7075C20.6137 11.7075 19.8137 11.4025 19.2049 10.7937C17.9874 9.57497 17.9874 7.59247 19.2049 6.37372C20.4237 5.15497 22.4062 5.15497 23.6249 6.37372C24.8437 7.59247 24.8437 9.57622 23.6249 10.7937Z"
                  fill="white"/>
            <path d="M3.40458 21.1313C2.06708 22.4688 0.230833 28.5113 0.0258335 29.1951C-0.0404165 29.4151 0.0208335 29.6538 0.182083 29.8163C0.302083 29.9363 0.460834 30 0.624584 30C0.684584 30 0.744584 29.9913 0.804584 29.9738C1.48833 29.7688 7.53083 27.9325 8.86833 26.595C10.3746 25.0888 10.3746 22.6375 8.86833 21.1313C7.36083 19.625 4.91083 19.6263 3.40458 21.1313Z"
                  fill="white"/>
        </g>
        <defs>
            <clipPath id="clip0_327_808">
                <rect width="30" height="30" fill="white"/>
            </clipPath>
        </defs>
    </symbol>

    <symbol id="telegram" viewBox="0 0 20 20" fill="none" xmlns="http://www.w3.org/2000/svg">
        <g clip-path="url(#clip0_327_922)">
            <path d="M7.84746 12.6508L7.51663 17.3041C7.98996 17.3041 8.19496 17.1008 8.4408 16.8566L10.66 14.7358L15.2583 18.1033C16.1016 18.5733 16.6958 18.3258 16.9233 17.3274L19.9416 3.1841L19.9425 3.18326C20.21 1.9366 19.4916 1.4491 18.67 1.75493L0.928298 8.54743C-0.282535 9.01743 -0.264202 9.69243 0.722465 9.99827L5.2583 11.4091L15.7941 4.8166C16.29 4.48827 16.7408 4.66993 16.37 4.99827L7.84746 12.6508Z"
                  fill="#797E8D"/>
        </g>
        <defs>
            <clipPath id="clip0_327_922">
                <rect width="20" height="20" fill="white"/>
            </clipPath>
        </defs>
    </symbol>

    <symbol id="new-document"
         viewBox="0 0 24 24"
         fill="red"
         xmlns="http://www.w3.org/2000/svg">
        <path d="M15 6.75007H18.3879C18.4175 6.75007 18.4465 6.74128 18.4712 6.72479C18.4959 6.70831 18.5151 6.68488 18.5264 6.65747C18.5378 6.63006 18.5408 6.5999 18.535 6.5708C18.5292 6.5417 18.5149 6.51498 18.4939 6.494L14.5061 2.5061C14.4851 2.48512 14.4584 2.47083 14.4293 2.46504C14.4002 2.45925 14.37 2.46222 14.3426 2.47358C14.3152 2.48493 14.2918 2.50416 14.2753 2.52882C14.2588 2.55349 14.25 2.5825 14.25 2.61216V6.00007C14.25 6.19898 14.329 6.38975 14.4697 6.5304C14.6103 6.67105 14.8011 6.75007 15 6.75007Z"
                      fill="#797E8D"

        />
        <path d="M18.75 8.25H15C14.4033 8.25 13.831 8.01295 13.409 7.59099C12.9871 7.16903 12.75 6.59674 12.75 6V2.25192C12.7503 2.15359 12.7312 2.05617 12.6938 1.96524C12.6564 1.8743 12.6014 1.79163 12.532 1.72197C12.4626 1.6523 12.3802 1.59701 12.2894 1.55925C12.1986 1.52149 12.1013 1.50201 12.0029 1.50192C10.2462 1.501 6 1.5 6 1.5C5.60218 1.5 5.22064 1.65804 4.93934 1.93934C4.65804 2.22064 4.5 2.60218 4.5 3V21C4.5 21.3978 4.65804 21.7794 4.93934 22.0607C5.22064 22.342 5.60218 22.5 6 22.5H18C18.3978 22.5 18.7794 22.342 19.0607 22.0607C19.342 21.7794 19.5 21.3978 19.5 21V9C19.5 8.80109 19.421 8.61032 19.2803 8.46967C19.1397 8.32902 18.9489 8.25 18.75 8.25Z"
                      fill="#797E8D"
        />
    </symbol>

    <svg width="24" height="24" viewBox="0 0 24 24" fill="none" xmlns="http://www.w3.org/2000/svg">
        <path fill-rule="evenodd" clip-rule="evenodd" d="M4.31546 3.75C3.93691 1.8 5.4511 0 7.41956 0C9.16088 0 10.5994 1.425 10.5994 3.15V7.05C11.0536 7.05 11.5079 6.975 11.9621 6.975C12.4164 6.975 12.795 6.975 13.2492 7.05V3.15C13.2492 1.425 14.6877 0 16.429 0C18.3975 0 19.9117 1.8 19.6088 3.75L18.776 8.325C21.7287 9.6 24 11.85 24 14.625V16.35C24 18.675 22.4858 20.625 20.2902 21.9C18.0946 23.25 15.2177 24 11.9621 24C8.70662 24 5.82965 23.25 3.63407 21.9C1.5142 20.625 0 18.675 0 16.35V14.625C0 11.85 2.19558 9.6 5.14826 8.325L4.31546 3.75ZM17.6404 8.925L18.6246 3.525C18.8517 2.175 17.8675 0.9 16.429 0.9C15.2177 0.9 14.2334 1.875 14.2334 3.075V8.025C13.9306 7.95 13.5521 7.95 13.2492 7.95C12.795 7.95 12.4164 7.875 11.9621 7.875C11.5079 7.875 11.0536 7.875 10.5994 7.95C10.2965 7.95 9.91798 8.025 9.61514 8.025V3.15C9.61514 1.95 8.63091 0.975 7.41956 0.975C6.05678 0.975 4.99685 2.25 5.29968 3.6L6.28391 9C3.1041 10.2 0.984227 12.3 0.984227 14.7V16.425C0.984227 20.1 5.90536 23.1 11.9621 23.1C18.0189 23.1 22.9401 20.1 22.9401 16.425V14.7C23.0158 12.225 20.8959 10.125 17.6404 8.925Z" fill="#1F2B34"/>
        <path d="M23.0144 16.35C23.0144 20.025 18.0933 23.025 12.0365 23.025C5.97973 23.025 1.05859 20.025 1.05859 16.35V14.625H23.0901V16.35H23.0144Z" fill="#797E8D"/>
        <path fill-rule="evenodd" clip-rule="evenodd" d="M5.29834 3.6001C4.9955 2.2501 6.05544 0.975098 7.41822 0.975098C8.62957 0.975098 9.6138 1.9501 9.6138 3.1501V8.1001C10.3709 8.0251 11.128 7.9501 11.9608 7.9501C12.7179 7.9501 13.475 8.0251 14.2321 8.1001V3.1501C14.2321 1.9501 15.2163 0.975098 16.4277 0.975098C17.7905 0.975098 18.8504 2.2501 18.6233 3.6001L17.639 9.0001C20.8188 10.2001 23.0144 12.3001 23.0144 14.7001C23.0144 18.3751 18.0933 21.3751 12.0365 21.3751C5.97973 21.3751 1.05859 18.3751 1.05859 14.7001C1.05859 12.3001 3.17847 10.2001 6.35828 9.0001L5.29834 3.6001Z" fill="#797E8D"/>
        <path d="M8.9337 14.175C8.9337 15.15 8.40373 15.975 7.72234 15.975C7.04095 15.975 6.51099 15.15 6.51099 14.175C6.51099 13.2 7.04095 12.375 7.72234 12.375C8.40373 12.375 8.9337 13.2 8.9337 14.175Z" fill="#1F2B34"/>
        <path d="M17.3375 14.175C17.3375 15.15 16.8075 15.975 16.1262 15.975C15.4448 15.975 14.9148 15.15 14.9148 14.175C14.9148 13.2 15.4448 12.375 16.1262 12.375C16.8075 12.375 17.3375 13.2 17.3375 14.175Z" fill="#1F2B34"/>
    </svg>

    <svg width="24" height="24" viewBox="0 0 24 24" fill="none" xmlns="http://www.w3.org/2000/svg">
        <path fill-rule="evenodd" clip-rule="evenodd" d="M4.31546 3.75C3.93691 1.8 5.4511 0 7.41956 0C9.16088 0 10.5994 1.425 10.5994 3.15V7.05C11.0536 7.05 11.5079 6.975 11.9621 6.975C12.4164 6.975 12.795 6.975 13.2492 7.05V3.15C13.2492 1.425 14.6877 0 16.429 0C18.3975 0 19.9117 1.8 19.6088 3.75L18.776 8.325C21.7287 9.6 24 11.85 24 14.625V16.35C24 18.675 22.4858 20.625 20.2902 21.9C18.0946 23.25 15.2177 24 11.9621 24C8.70662 24 5.82965 23.25 3.63407 21.9C1.5142 20.625 0 18.675 0 16.35V14.625C0 11.85 2.19558 9.6 5.14826 8.325L4.31546 3.75ZM17.6404 8.925L18.6246 3.525C18.8517 2.175 17.8675 0.9 16.429 0.9C15.2177 0.9 14.2334 1.875 14.2334 3.075V8.025C13.9306 7.95 13.5521 7.95 13.2492 7.95C12.795 7.95 12.4164 7.875 11.9621 7.875C11.5079 7.875 11.0536 7.875 10.5994 7.95C10.2965 7.95 9.91798 8.025 9.61514 8.025V3.15C9.61514 1.95 8.63091 0.975 7.41956 0.975C6.05678 0.975 4.99685 2.25 5.29968 3.6L6.28391 9C3.1041 10.2 0.984227 12.3 0.984227 14.7V16.425C0.984227 20.1 5.90536 23.1 11.9621 23.1C18.0189 23.1 22.9401 20.1 22.9401 16.425V14.7C23.0158 12.225 20.8959 10.125 17.6404 8.925Z" fill="#17232C"/>
        <path d="M23.0144 16.35C23.0144 20.025 18.0933 23.025 12.0365 23.025C5.97973 23.025 1.05859 20.025 1.05859 16.35V14.625H23.0901V16.35H23.0144Z" fill="#797E8D"/>
        <path d="M23.0144 16.35C23.0144 20.025 18.0933 23.025 12.0365 23.025C5.97973 23.025 1.05859 20.025 1.05859 16.35V14.625H23.0901V16.35H23.0144Z" fill="url(#paint0_linear_332_3955)"/>
        <path fill-rule="evenodd" clip-rule="evenodd" d="M5.29834 3.6001C4.9955 2.2501 6.05544 0.975098 7.41822 0.975098C8.62957 0.975098 9.6138 1.9501 9.6138 3.1501V8.1001C10.3709 8.0251 11.128 7.9501 11.9608 7.9501C12.7179 7.9501 13.475 8.0251 14.2321 8.1001V3.1501C14.2321 1.9501 15.2163 0.975098 16.4277 0.975098C17.7905 0.975098 18.8504 2.2501 18.6233 3.6001L17.639 9.0001C20.8188 10.2001 23.0144 12.3001 23.0144 14.7001C23.0144 18.3751 18.0933 21.3751 12.0365 21.3751C5.97973 21.3751 1.05859 18.3751 1.05859 14.7001C1.05859 12.3001 3.17847 10.2001 6.35828 9.0001L5.29834 3.6001Z" fill="#797E8D"/>
        <path fill-rule="evenodd" clip-rule="evenodd" d="M5.29834 3.6001C4.9955 2.2501 6.05544 0.975098 7.41822 0.975098C8.62957 0.975098 9.6138 1.9501 9.6138 3.1501V8.1001C10.3709 8.0251 11.128 7.9501 11.9608 7.9501C12.7179 7.9501 13.475 8.0251 14.2321 8.1001V3.1501C14.2321 1.9501 15.2163 0.975098 16.4277 0.975098C17.7905 0.975098 18.8504 2.2501 18.6233 3.6001L17.639 9.0001C20.8188 10.2001 23.0144 12.3001 23.0144 14.7001C23.0144 18.3751 18.0933 21.3751 12.0365 21.3751C5.97973 21.3751 1.05859 18.3751 1.05859 14.7001C1.05859 12.3001 3.17847 10.2001 6.35828 9.0001L5.29834 3.6001Z" fill="url(#paint1_linear_332_3955)"/>
        <path d="M8.9337 14.175C8.9337 15.15 8.40373 15.975 7.72234 15.975C7.04095 15.975 6.51099 15.15 6.51099 14.175C6.51099 13.2 7.04095 12.375 7.72234 12.375C8.40373 12.375 8.9337 13.2 8.9337 14.175Z" fill="#17232C"/>
        <path d="M17.3375 14.175C17.3375 15.15 16.8075 15.975 16.1262 15.975C15.4448 15.975 14.9148 15.15 14.9148 14.175C14.9148 13.2 15.4448 12.375 16.1262 12.375C16.8075 12.375 17.3375 13.2 17.3375 14.175Z" fill="#17232C"/>
        <defs>
            <linearGradient id="paint0_linear_332_3955" x1="21.9306" y1="23.025" x2="0.536794" y2="23.025" gradientUnits="userSpaceOnUse">
                <stop stop-color="#62A74A"/>
                <stop offset="1" stop-color="#FFAF46"/>
            </linearGradient>
            <linearGradient id="paint1_linear_332_3955" x1="21.8589" y1="21.3751" x2="0.538588" y2="21.3751" gradientUnits="userSpaceOnUse">
                <stop stop-color="#62A74A"/>
                <stop offset="1" stop-color="#FFAF46"/>
            </linearGradient>
        </defs>
    </svg>

</svg>
